<svg xmlns="http://www.w3.org/2000/svg" viewBox="0 0 315 45" enable-background="new 0 0 315 45"><path fill="#5EC8E2" d="M7.3 8.4c-1.9-5.2-2.2-5.8-7-6.6v-1.1h10.7l13 36.2 13.4-36.2h3.8l-16.4 44.3h-3.8l-13.7-36.6zM248.1 37.1c1.9 5.1 2.2 5.8 7.1 6.5v1.1h-10.7l-13-36.2-13.5 36.3h-3.8l16.4-44.3h3.8l13.7 36.6z"/><path fill="#999" d="M77 22.5c0-13.8 4.1-22.5 17-22.5s16.8 9.6 16.8 22.5c0 13.7-4 22.5-16.8 22.5-13.3 0-17-9.6-17-22.5zm27.5 0c0-8.2-.5-20-10.5-20-9.9 0-10.6 11.1-10.6 20 0 8.1.5 19.9 10.6 19.9 9.8.1 10.5-11 10.5-19.9zM152.9 7.6c0-4.5-1-4.7-6.5-5.8v-1.1h18.3c7.9 0 14.4 1.9 14.4 11.2 0 7.4-5.5 9.8-11.2 10.6l13.1 21.8h-6.3l-12.9-21.4h-3.2v21.4h-5.6v-36.7zm5.7 12.7h1.7c4.6 0 12.5 0 12.5-9.1 0-6.2-4.6-8-9.6-8-4.3 0-4.6.5-4.6 4.3v12.8zM310.9 5.6c-2-.9-6.2-2.7-10.7-2.7-4.7 0-7.8 2.5-7.8 6.5 0 10.2 21.4 8.9 21.4 23.1 0 8.9-7.4 12.5-15.7 12.5-4.5 0-9.3-1-10.4-1.3v-4.5c2.4 1.2 6.9 2.8 11.3 2.8 5.7 0 9.1-2.7 9.1-8.2 0-10.9-20.8-9.3-20.8-22.9 0-7.1 5.5-10.9 14.1-10.9 4.2 0 7.7.6 9.6 1v4.6z"/></svg>