<svg xmlns="http://www.w3.org/2000/svg" viewBox="0 0 315 45"><path fill="#5EC8E2" d="M7.3 8.4C5.4 3.2 5.1 2.6.3 1.8V.7H11l13 36.2L37.4.7h3.8L24.8 45H21L7.3 8.4zm240.8 28.7c1.9 5.1 2.2 5.8 7.1 6.5v1.1h-10.7l-13-36.2L218 44.8h-3.8L230.6.5h3.8l13.7 36.6z"/><path fill="#999" d="M77 22.5C77 8.7 81.1 0 94 0s16.8 9.6 16.8 22.5c0 13.7-4 22.5-16.8 22.5-13.3 0-17-9.6-17-22.5zm27.5 0c0-8.2-.5-20-10.5-20-9.9 0-10.6 11.1-10.6 20 0 8.1.5 19.9 10.6 19.9 9.8.1 10.5-11 10.5-19.9zm48.4-14.9c0-4.5-1-4.7-6.5-5.8V.7h18.3c7.9 0 14.4 1.9 14.4 11.2 0 7.4-5.5 9.8-11.2 10.6L181 44.3h-6.3l-12.9-21.4h-3.2v21.4H153V7.6zm5.7 12.7h1.7c4.6 0 12.5 0 12.5-9.1 0-6.2-4.6-8-9.6-8-4.3 0-4.6.5-4.6 4.3v12.8zM310.9 5.6c-2-.9-6.2-2.7-10.7-2.7-4.7 0-7.8 2.5-7.8 6.5 0 10.2 21.4 8.9 21.4 23.1 0 8.9-7.4 12.5-15.7 12.5-4.5 0-9.3-1-10.4-1.3v-4.5c2.4 1.2 6.9 2.8 11.3 2.8 5.7 0 9.1-2.7 9.1-8.2 0-10.9-20.8-9.3-20.8-22.9 0-7.1 5.5-10.9 14.1-10.9 4.2 0 7.7.6 9.6 1v4.6z"/></svg>